<svg xmlns="http://www.w3.org/2000/svg" viewBox="0 0 247 245" width="247" height="245">
  <path fill="#4689ac" fill-rule="evenodd" d="M17 0.65l104.98 108.9 25.02-25.35-81.84-83.4z"/>
  <path fill="#01a6e0" fill-rule="evenodd" d="M228 1.65l-104.98 108.9-25.02-25.35 81.84-83.4z"/>
  <path fill="#982c5f" fill-rule="evenodd" d="M0.29 227.35l109.81-104.03-25.12-25.24-84.12 81.11z"/>
  <path fill="#df007d" fill-rule="evenodd" d="M3.14 16.36l107.97 105.93-25.56 24.8-82.68-82.57z"/>
  <path fill="#21201c" fill-rule="evenodd" d="M229.69 244.2l-104.98-108.9-25.02 25.35 81.84 83.4z"/>
  <path fill="#3f3f3e" fill-rule="evenodd" d="M18.69 243.2l104.98-108.9 25.02 25.35-81.84 83.4z"/>
  <path fill="#ffce7d" fill-rule="evenodd" d="M246.5 16.75l-108.9 104.98 25.34 25.03 83.41-81.84z"/>
  <path fill="#fae402" fill-rule="evenodd" d="M245.5 227.76l-108.9-104.98 25.34-25.03 83.41 81.84z"/>
</svg>